<svg width="40" height="40" viewBox="0 0 40 40" fill="none" xmlns="http://www.w3.org/2000/svg">
<mask id="mask0_3736_15334" style="mask-type:alpha" maskUnits="userSpaceOnUse" x="0" y="0" width="40" height="40">
<rect width="40" height="40" fill="#D9D9D9"/>
</mask>
<g mask="url(#mask0_3736_15334)">
<path d="M9.99999 14.043H15C15.1947 14.043 15.3613 13.9733 15.5 13.834C15.6387 13.6953 15.708 13.5286 15.708 13.334C15.708 13.14 15.6387 12.9733 15.5 12.834C15.3613 12.6953 15.1947 12.626 15 12.626H9.99999C9.80533 12.626 9.63866 12.6953 9.49999 12.834C9.36133 12.9733 9.29199 13.14 9.29199 13.334C9.29199 13.5286 9.36133 13.6953 9.49999 13.834C9.63866 13.9733 9.80533 14.043 9.99999 14.043ZM9.99999 20.709H15C15.1947 20.709 15.3613 20.6396 15.5 20.501C15.6387 20.3623 15.708 20.1956 15.708 20.001C15.708 19.8063 15.6387 19.6396 15.5 19.501C15.3613 19.3623 15.1947 19.293 15 19.293H9.99999C9.80533 19.293 9.63866 19.3623 9.49999 19.501C9.36133 19.6396 9.29199 19.8063 9.29199 20.001C9.29199 20.1956 9.36133 20.3623 9.49999 20.501C9.63866 20.6396 9.80533 20.709 9.99999 20.709ZM9.99999 27.376H15C15.1947 27.376 15.3613 27.3066 15.5 27.168C15.6387 27.0286 15.708 26.862 15.708 26.668C15.708 26.4733 15.6387 26.3066 15.5 26.168C15.3613 26.0286 15.1947 25.959 15 25.959H9.99999C9.80533 25.959 9.63866 26.0286 9.49999 26.168C9.36133 26.3066 9.29199 26.4733 9.29199 26.668C9.29199 26.862 9.36133 27.0286 9.49999 27.168C9.63866 27.3066 9.80533 27.376 9.99999 27.376ZM24.25 23.209C24.3887 23.209 24.5207 23.1813 24.646 23.126C24.7707 23.0706 24.8887 22.9873 25 22.876L30.625 17.251C30.7637 17.0843 30.84 16.9176 30.854 16.751C30.868 16.5843 30.7917 16.4176 30.625 16.251C30.4863 16.0843 30.3267 16.001 30.146 16.001C29.9653 16.001 29.7917 16.0843 29.625 16.251L24.25 21.668L22.375 19.793C22.2363 19.6816 22.0697 19.612 21.875 19.584C21.6803 19.5566 21.5137 19.6263 21.375 19.793C21.2363 19.9316 21.167 20.0983 21.167 20.293C21.167 20.487 21.2363 20.6536 21.375 20.793L23.5 22.876C23.6113 22.9873 23.7293 23.0706 23.854 23.126C23.9793 23.1813 24.1113 23.209 24.25 23.209ZM7.33299 33.334C6.66633 33.334 6.09699 33.098 5.62499 32.626C5.15299 32.154 4.91699 31.5846 4.91699 30.918V9.08397C4.91699 8.4173 5.15299 7.84797 5.62499 7.37597C6.09699 6.90397 6.66633 6.66797 7.33299 6.66797H32.667C33.3337 6.66797 33.903 6.90397 34.375 7.37597C34.847 7.84797 35.083 8.4173 35.083 9.08397V30.918C35.083 31.5846 34.847 32.154 34.375 32.626C33.903 33.098 33.3337 33.334 32.667 33.334H7.33299ZM7.33299 31.918H32.667C32.917 31.918 33.146 31.8136 33.354 31.605C33.5627 31.397 33.667 31.168 33.667 30.918V9.08397C33.667 8.83397 33.5627 8.60497 33.354 8.39697C33.146 8.1883 32.917 8.08397 32.667 8.08397H7.33299C7.08299 8.08397 6.85399 8.1883 6.64599 8.39697C6.43733 8.60497 6.33299 8.83397 6.33299 9.08397V30.918C6.33299 31.168 6.43733 31.397 6.64599 31.605C6.85399 31.8136 7.08299 31.918 7.33299 31.918Z" fill="#0054A2"/>
</g>
</svg>
