<svg width="28" height="31" viewBox="0 0 28 31" fill="none" xmlns="http://www.w3.org/2000/svg">
<path d="M14 19.583C13.6667 19.583 13.368 19.458 13.104 19.208C12.84 18.958 12.708 18.6527 12.708 18.292C12.708 17.9587 12.84 17.667 13.104 17.417C13.368 17.167 13.6667 17.042 14 17.042C14.3333 17.042 14.632 17.167 14.896 17.417C15.16 17.667 15.292 17.9587 15.292 18.292C15.292 18.6527 15.16 18.958 14.896 19.208C14.632 19.458 14.3333 19.583 14 19.583ZM7.33299 19.583C6.99966 19.583 6.70133 19.458 6.43799 19.208C6.17399 18.958 6.04199 18.6527 6.04199 18.292C6.04199 17.9587 6.17399 17.667 6.43799 17.417C6.70133 17.167 6.99966 17.042 7.33299 17.042C7.66633 17.042 7.96499 17.167 8.22899 17.417C8.49299 17.667 8.62499 17.9587 8.62499 18.292C8.62499 18.6527 8.49299 18.958 8.22899 19.208C7.96499 19.458 7.66633 19.583 7.33299 19.583ZM20.667 19.583C20.3337 19.583 20.035 19.458 19.771 19.208C19.507 18.958 19.375 18.6527 19.375 18.292C19.375 17.9587 19.507 17.667 19.771 17.417C20.035 17.167 20.3337 17.042 20.667 17.042C21.0003 17.042 21.2987 17.167 21.562 17.417C21.826 17.667 21.958 17.9587 21.958 18.292C21.958 18.6527 21.826 18.958 21.562 19.208C21.2987 19.458 21.0003 19.583 20.667 19.583ZM14 26C13.6667 26 13.368 25.875 13.104 25.625C12.84 25.375 12.708 25.0693 12.708 24.708C12.708 24.3747 12.84 24.076 13.104 23.812C13.368 23.5487 13.6667 23.417 14 23.417C14.3333 23.417 14.632 23.5487 14.896 23.812C15.16 24.076 15.292 24.3747 15.292 24.708C15.292 25.0693 15.16 25.375 14.896 25.625C14.632 25.875 14.3333 26 14 26ZM7.33299 26C6.99966 26 6.70133 25.875 6.43799 25.625C6.17399 25.375 6.04199 25.0693 6.04199 24.708C6.04199 24.3747 6.17399 24.076 6.43799 23.812C6.70133 23.5487 6.99966 23.417 7.33299 23.417C7.66633 23.417 7.96499 23.5487 8.22899 23.812C8.49299 24.076 8.62499 24.3747 8.62499 24.708C8.62499 25.0693 8.49299 25.375 8.22899 25.625C7.96499 25.875 7.66633 26 7.33299 26ZM20.667 26C20.3337 26 20.035 25.875 19.771 25.625C19.507 25.375 19.375 25.0693 19.375 24.708C19.375 24.3747 19.507 24.076 19.771 23.812C20.035 23.5487 20.3337 23.417 20.667 23.417C21.0003 23.417 21.2987 23.5487 21.562 23.812C21.826 24.076 21.958 24.3747 21.958 24.708C21.958 25.0693 21.826 25.375 21.562 25.625C21.2987 25.875 21.0003 26 20.667 26ZM3.08299 31C2.41633 31 1.84699 30.764 1.37499 30.292C0.902992 29.8193 0.666992 29.2497 0.666992 28.583V6.5C0.666992 5.83333 0.902992 5.264 1.37499 4.792C1.84699 4.31933 2.41633 4.083 3.08299 4.083H6.37499V1.417C6.37499 1.19433 6.45133 1.00667 6.60399 0.854C6.75666 0.701333 6.94433 0.625 7.16699 0.625C7.38899 0.625 7.57633 0.701333 7.72899 0.854C7.88166 1.00667 7.95799 1.19433 7.95799 1.417V4.083H20.167V1.375C20.167 1.153 20.2363 0.972333 20.375 0.833C20.5137 0.694334 20.6803 0.625 20.875 0.625C21.097 0.625 21.2777 0.694334 21.417 0.833C21.5557 0.972333 21.625 1.153 21.625 1.375V4.083H24.917C25.5837 4.083 26.153 4.31933 26.625 4.792C27.097 5.264 27.333 5.83333 27.333 6.5V28.583C27.333 29.2497 27.097 29.8193 26.625 30.292C26.153 30.764 25.5837 31 24.917 31H3.08299ZM3.08299 29.583H24.917C25.1943 29.583 25.4303 29.486 25.625 29.292C25.8197 29.0973 25.917 28.861 25.917 28.583V13.583H2.08299V28.583C2.08299 28.861 2.18033 29.0973 2.37499 29.292C2.56966 29.486 2.80566 29.583 3.08299 29.583ZM2.08299 12.167H25.917V6.5C25.917 6.222 25.8197 5.986 25.625 5.792C25.4303 5.59733 25.1943 5.5 24.917 5.5H3.08299C2.80566 5.5 2.56966 5.59733 2.37499 5.792C2.18033 5.986 2.08299 6.222 2.08299 6.5V12.167Z" fill="#0054A2"/>
</svg>
