<svg width="32" height="40" viewBox="0 0 32 40" fill="none" xmlns="http://www.w3.org/2000/svg">
<path fill-rule="evenodd" clip-rule="evenodd" d="M4 0C2.89543 0 2 0.895431 2 2V38C2 39.1046 2.89543 40 4 40H30C31.1046 40 32 39.1046 32 38V12L20 0H4Z" fill="#D9D9D9"/>
<path d="M32 12L22 12C20.8954 12 20 11.1046 20 10L20 0L32 12Z" fill="#7D8FA9"/>
<rect y="20" width="28" height="12" rx="2" fill="#FF001F"/>
<path d="M8.58057 27.1138H6.91504V26.2393H8.58057C8.87061 26.2393 9.10498 26.1924 9.28369 26.0986C9.4624 26.0049 9.59277 25.876 9.6748 25.7119C9.75977 25.5449 9.80225 25.3545 9.80225 25.1406C9.80225 24.9385 9.75977 24.7495 9.6748 24.5737C9.59277 24.395 9.4624 24.2515 9.28369 24.1431C9.10498 24.0347 8.87061 23.9805 8.58057 23.9805H7.25342V29.5H6.15039V23.1016H8.58057C9.07568 23.1016 9.49609 23.1895 9.8418 23.3652C10.1904 23.5381 10.4556 23.7783 10.6372 24.0859C10.8188 24.3906 10.9097 24.7393 10.9097 25.1318C10.9097 25.5449 10.8188 25.8994 10.6372 26.1953C10.4556 26.4912 10.1904 26.7183 9.8418 26.8765C9.49609 27.0347 9.07568 27.1138 8.58057 27.1138ZM13.7573 29.5H12.3906L12.3994 28.6255H13.7573C14.1528 28.6255 14.4839 28.5391 14.7505 28.3662C15.02 28.1934 15.2222 27.9458 15.3569 27.6235C15.4946 27.3013 15.5635 26.9175 15.5635 26.4722V26.125C15.5635 25.7793 15.5239 25.4731 15.4448 25.2065C15.3687 24.9399 15.2544 24.7158 15.1021 24.5342C14.9526 24.3525 14.7681 24.2148 14.5483 24.1211C14.3315 24.0273 14.0811 23.9805 13.7969 23.9805H12.3643V23.1016H13.7969C14.2217 23.1016 14.6099 23.1733 14.9614 23.3169C15.313 23.4575 15.6162 23.6611 15.8711 23.9277C16.1289 24.1943 16.3267 24.5137 16.4644 24.8857C16.6021 25.2578 16.6709 25.6738 16.6709 26.1338V26.4722C16.6709 26.9321 16.6021 27.3481 16.4644 27.7202C16.3267 28.0923 16.1289 28.4116 15.8711 28.6782C15.6133 28.9419 15.3057 29.1455 14.9482 29.2891C14.5938 29.4297 14.1968 29.5 13.7573 29.5ZM13.0015 23.1016V29.5H11.8984V23.1016H13.0015ZM18.8813 23.1016V29.5H17.7783V23.1016H18.8813ZM21.4917 25.9009V26.7754H18.6001V25.9009H21.4917ZM21.8564 23.1016V23.9805H18.6001V23.1016H21.8564Z" fill="white"/>
</svg>
