<svg width="32" height="40" viewBox="0 0 32 40" fill="none" xmlns="http://www.w3.org/2000/svg">
<path fill-rule="evenodd" clip-rule="evenodd" d="M4 0C2.89543 0 2 0.895431 2 2V38C2 39.1046 2.89543 40 4 40H30C31.1046 40 32 39.1046 32 38V12L20 0H4Z" fill="#D9D9D9"/>
<path d="M32 12L22 12C20.8954 12 20 11.1046 20 10L20 0L32 12Z" fill="#7D8FA9"/>
<rect y="20" width="28" height="12" rx="2" fill="#FFAA04"/>
<path d="M12.6421 23.9541L10.7305 29.5H9.57471L11.9829 23.1016H12.7212L12.6421 23.9541ZM14.2417 29.5L12.3257 23.9541L12.2422 23.1016H12.9849L15.4019 29.5H14.2417ZM14.1494 27.127V28.0015H10.6689V27.127H14.1494ZM17.2959 23.1016V29.5H16.1929V23.1016H17.2959Z" fill="white"/>
</svg>
