<svg width="40" height="40" viewBox="0 0 40 40" fill="none" xmlns="http://www.w3.org/2000/svg">
<mask id="mask0_3736_15325" style="mask-type:alpha" maskUnits="userSpaceOnUse" x="0" y="0" width="40" height="40">
<rect width="40" height="40" fill="#D9D9D9"/>
</mask>
<g mask="url(#mask0_3736_15325)">
<path d="M16.625 25.832H19.333V26.874C19.333 27.0687 19.4027 27.2354 19.542 27.374C19.6807 27.5127 19.8473 27.582 20.042 27.582C20.236 27.582 20.4027 27.5127 20.542 27.374C20.6807 27.2354 20.75 27.0687 20.75 26.874V25.832H22.875C23.2363 25.832 23.535 25.707 23.771 25.457C24.007 25.207 24.125 24.9154 24.125 24.582V20.541C24.125 20.1797 24.007 19.874 23.771 19.624C23.535 19.374 23.2363 19.249 22.875 19.249H17.333V15.582H23.417C23.611 15.582 23.7777 15.5127 23.917 15.374C24.0557 15.2354 24.125 15.0687 24.125 14.874C24.125 14.652 24.0557 14.4784 23.917 14.353C23.7777 14.2284 23.611 14.166 23.417 14.166H20.75V13.124C20.75 12.9294 20.6807 12.7627 20.542 12.624C20.4027 12.4854 20.236 12.416 20.042 12.416C19.8473 12.416 19.6807 12.4854 19.542 12.624C19.4027 12.7627 19.333 12.9294 19.333 13.124V14.166H17.167C16.8337 14.166 16.542 14.291 16.292 14.541C16.042 14.791 15.917 15.0964 15.917 15.457V19.457C15.917 19.8184 16.042 20.11 16.292 20.332C16.542 20.5547 16.8337 20.666 17.167 20.666H22.708V24.416H16.625C16.403 24.416 16.2293 24.4854 16.104 24.624C15.9793 24.7627 15.917 24.9294 15.917 25.124C15.917 25.346 15.9793 25.5197 16.104 25.645C16.2293 25.7697 16.403 25.832 16.625 25.832ZM7.417 31.666C6.75033 31.666 6.18067 31.4297 5.708 30.957C5.236 30.485 5 29.9157 5 29.249V10.749C5 10.0824 5.236 9.51303 5.708 9.04103C6.18067 8.56836 6.75033 8.33203 7.417 8.33203H32.583C33.2497 8.33203 33.8193 8.56836 34.292 9.04103C34.764 9.51303 35 10.0824 35 10.749V29.249C35 29.9157 34.764 30.485 34.292 30.957C33.8193 31.4297 33.2497 31.666 32.583 31.666H7.417ZM7.417 30.249H32.583C32.861 30.249 33.0973 30.1517 33.292 29.957C33.486 29.763 33.583 29.527 33.583 29.249V10.749C33.583 10.471 33.486 10.235 33.292 10.041C33.0973 9.84636 32.861 9.74903 32.583 9.74903H7.417C7.139 9.74903 6.90267 9.84636 6.708 10.041C6.514 10.235 6.417 10.471 6.417 10.749V29.249C6.417 29.527 6.514 29.763 6.708 29.957C6.90267 30.1517 7.139 30.249 7.417 30.249Z" fill="#0054A2"/>
</g>
</svg>
