<svg width="100" height="100" viewBox="0 0 100 100" fill="none" xmlns="http://www.w3.org/2000/svg">
<rect width="100" height="100" rx="6" fill="#3B4758"/>
<path d="M68.4223 40.0736L62.3868 59.0958C62.3868 57.6389 58.2244 26.0879 58.2244 26.0879C48.6508 26.0879 43.5727 32.8726 40.9087 40.0736L33.5413 59.1374C33.5413 57.7638 32.5007 40.2401 32.5007 40.2401C32.1453 36.4465 30.411 32.9151 27.6264 30.3145C24.8417 27.714 21.2001 26.225 17.3911 26.1295L25.2164 73.914C35.2062 73.914 40.6174 67.1292 43.4062 59.9283L49.6498 43.6949C49.6498 44.3609 53.8122 73.914 53.8122 73.914C57.8972 73.9087 61.8743 72.6028 65.1672 70.1855C68.4602 67.7682 70.8978 64.3651 72.1268 60.4694L86.279 26.0879C76.2892 26.0879 71.0446 32.8726 68.3806 40.0736H68.4223Z" fill="white"/>
</svg>
