<svg width="36" height="36" viewBox="0 0 36 36" fill="none" xmlns="http://www.w3.org/2000/svg">
<rect width="36" height="36" rx="6" fill="#489DEC"/>
<g clip-path="url(#clip0_4096_30672)">
<path d="M14 17C15.3261 17 16.5979 16.4732 17.5355 15.5355C18.4732 14.5979 19 13.3261 19 12C19 10.6739 18.4732 9.40215 17.5355 8.46447C16.5979 7.52678 15.3261 7 14 7C12.6739 7 11.4021 7.52678 10.4645 8.46447C9.52678 9.40215 9 10.6739 9 12C9 13.3261 9.52678 14.5979 10.4645 15.5355C11.4021 16.4732 12.6739 17 14 17ZM14 17C16.013 17 17.772 17.76 19.023 19.023M14 17C10 17 7 20 7 24V29H14M29 21L26 18L20 24M23.5 20.5L26.5 23.5M16 25.5C16.0003 26.1633 16.264 26.7993 16.7332 27.2682C17.2024 27.737 17.8387 28.0003 18.502 28C19.1653 27.9997 19.8013 27.736 20.2702 27.2668C20.739 26.7976 21.0023 26.1613 21.002 25.498C21.0017 24.8347 20.738 24.1987 20.2688 23.7298C19.7996 23.261 19.1633 22.9977 18.5 22.998C17.8367 22.9983 17.2007 23.262 16.7318 23.7312C16.263 24.2004 15.9997 24.8367 16 25.5Z" stroke="#F8F8F8" stroke-width="2"/>
</g>
<defs>
<clipPath id="clip0_4096_30672">
<rect width="24" height="24" fill="white" transform="translate(6 6)"/>
</clipPath>
</defs>
</svg>
