<svg width="36" height="36" viewBox="0 0 36 36" fill="none" xmlns="http://www.w3.org/2000/svg">
<rect width="36" height="36" rx="6" fill="#36DA78"/>
<path d="M27 7.5H18C17.6022 7.5 17.2206 7.65804 16.9393 7.93934C16.658 8.22064 16.5 8.60218 16.5 9V16.5H9C8.60218 16.5 8.22064 16.658 7.93934 16.9393C7.65804 17.2206 7.5 17.6022 7.5 18V28.5H28.5V9C28.5 8.60218 28.342 8.22064 28.0607 7.93934C27.7794 7.65804 27.3978 7.5 27 7.5ZM12.75 27V21.75H15.75V27H12.75ZM27 27H17.25V21C17.25 20.8011 17.171 20.6103 17.0303 20.4697C16.8897 20.329 16.6989 20.25 16.5 20.25H12C11.8011 20.25 11.6103 20.329 11.4697 20.4697C11.329 20.6103 11.25 20.8011 11.25 21V27H9V18H18V9H27V27Z" fill="#F8F8F8"/>
<path d="M19.5 12H21V13.5H19.5V12ZM24 12H25.5V13.5H24V12ZM19.5 16.5H21V18H19.5V16.5ZM24 16.5H25.5V18H24V16.5ZM19.5 21H21V22.5H19.5V21ZM24 21H25.5V22.5H24V21Z" fill="#F8F8F8"/>
</svg>
