<svg width="36" height="36" viewBox="0 0 36 36" fill="none" xmlns="http://www.w3.org/2000/svg">
<rect width="36" height="36" rx="6" fill="#FF59EE"/>
<path d="M8 26C7.71667 26 7.47933 25.904 7.288 25.712C7.096 25.5207 7 25.2833 7 25V23.2C7 22.6333 7.146 22.1123 7.438 21.637C7.72933 21.1623 8.11667 20.8 8.6 20.55C9.63333 20.0333 10.6833 19.6457 11.75 19.387C12.8167 19.129 13.9 19 15 19C16.1 19 17.1833 19.129 18.25 19.387C19.3167 19.6457 20.3667 20.0333 21.4 20.55C21.8833 20.8 22.2707 21.1623 22.562 21.637C22.854 22.1123 23 22.6333 23 23.2V25C23 25.2833 22.904 25.5207 22.712 25.712C22.5207 25.904 22.2833 26 22 26H8ZM24.525 26C24.675 25.8833 24.7917 25.7373 24.875 25.562C24.9583 25.3873 25 25.1917 25 24.975V23C25 22.2667 24.796 21.5623 24.388 20.887C23.9793 20.2123 23.4 19.6333 22.65 19.15C23.5 19.25 24.3 19.4207 25.05 19.662C25.8 19.904 26.5 20.2 27.15 20.55C27.75 20.8833 28.2083 21.254 28.525 21.662C28.8417 22.0707 29 22.5167 29 23V25C29 25.2833 28.904 25.5207 28.712 25.712C28.5207 25.904 28.2833 26 28 26H24.525ZM15 18C13.9 18 12.9583 17.6083 12.175 16.825C11.3917 16.0417 11 15.1 11 14C11 12.9 11.3917 11.9583 12.175 11.175C12.9583 10.3917 13.9 10 15 10C16.1 10 17.0417 10.3917 17.825 11.175C18.6083 11.9583 19 12.9 19 14C19 15.1 18.6083 16.0417 17.825 16.825C17.0417 17.6083 16.1 18 15 18ZM25 14C25 15.1 24.6083 16.0417 23.825 16.825C23.0417 17.6083 22.1 18 21 18C20.8167 18 20.5833 17.9793 20.3 17.938C20.0167 17.896 19.7833 17.85 19.6 17.8C20.05 17.2667 20.3957 16.675 20.637 16.025C20.879 15.375 21 14.7 21 14C21 13.3 20.879 12.625 20.637 11.975C20.3957 11.325 20.05 10.7333 19.6 10.2C19.8333 10.1167 20.0667 10.0623 20.3 10.037C20.5333 10.0123 20.7667 10 21 10C22.1 10 23.0417 10.3917 23.825 11.175C24.6083 11.9583 25 12.9 25 14ZM9 24H21V23.2C21 23.0167 20.9543 22.85 20.863 22.7C20.771 22.55 20.65 22.4333 20.5 22.35C19.6 21.9 18.6917 21.5623 17.775 21.337C16.8583 21.1123 15.9333 21 15 21C14.0667 21 13.1417 21.1123 12.225 21.337C11.3083 21.5623 10.4 21.9 9.5 22.35C9.35 22.4333 9.22933 22.55 9.138 22.7C9.046 22.85 9 23.0167 9 23.2V24ZM15 16C15.55 16 16.021 15.804 16.413 15.412C16.8043 15.0207 17 14.55 17 14C17 13.45 16.8043 12.9793 16.413 12.588C16.021 12.196 15.55 12 15 12C14.45 12 13.9793 12.196 13.588 12.588C13.196 12.9793 13 13.45 13 14C13 14.55 13.196 15.0207 13.588 15.412C13.9793 15.804 14.45 16 15 16Z" fill="#FFB6F7"/>
</svg>
