<svg width="63" height="45" viewBox="0 0 63 45" fill="none" xmlns="http://www.w3.org/2000/svg">
<path d="M46.053 43H60.6599V37.875C60.6599 33.6292 56.7362 30.1875 51.8958 30.1875C49.1041 30.1875 46.6171 31.3324 45.0124 33.1162M46.053 43H16.8393M46.053 43V37.875C46.053 36.1935 45.6838 34.5873 45.0124 33.1162M16.8393 43H2.23242V37.875C2.23242 33.6292 6.15627 30.1875 10.9965 30.1875C13.7882 30.1875 16.2751 31.3324 17.88 33.1162M16.8393 43V37.875C16.8393 36.1935 17.2086 34.5873 17.88 33.1162M17.88 33.1162C20.0338 28.3963 25.2961 25.0625 31.4462 25.0625C37.5962 25.0625 42.8585 28.3963 45.0124 33.1162M40.2103 9.6875C40.2103 13.9332 36.2866 17.375 31.4462 17.375C26.6057 17.375 22.682 13.9332 22.682 9.6875C22.682 5.44182 26.6057 2 31.4462 2C36.2866 2 40.2103 5.44182 40.2103 9.6875ZM57.7385 17.375C57.7385 20.2055 55.1227 22.5 51.8958 22.5C48.6688 22.5 46.053 20.2055 46.053 17.375C46.053 14.5445 48.6688 12.25 51.8958 12.25C55.1227 12.25 57.7385 14.5445 57.7385 17.375ZM16.8393 17.375C16.8393 20.2055 14.2234 22.5 10.9965 22.5C7.76968 22.5 5.1538 20.2055 5.1538 17.375C5.1538 14.5445 7.76968 12.25 10.9965 12.25C14.2234 12.25 16.8393 14.5445 16.8393 17.375Z" stroke="#313131" stroke-width="3" stroke-linecap="round" stroke-linejoin="round"/>
</svg>
