<svg width="72" height="42" viewBox="0 0 72 42" fill="none" xmlns="http://www.w3.org/2000/svg">
<path d="M57.9588 16.578C57.9588 24.9659 49.1524 32.156 37.745 32.156C26.3377 32.156 17.5312 24.9659 17.5312 16.578C17.5312 8.19006 26.3377 1 37.745 1C49.1524 1 57.9588 8.19006 57.9588 16.578Z" stroke="#313131" stroke-width="2"/>
<line y1="-1" x2="21.8704" y2="-1" transform="matrix(0.806793 0.590835 -0.768 0.640451 52.4902 28.998)" stroke="#313131" stroke-width="2"/>
<line x1="2.20898" y1="27.6299" x2="2.20898" y2="40.5239" stroke="#313131" stroke-width="2"/>
<line x1="6.92188" y1="25.7881" x2="6.92188" y2="40.5241" stroke="#313131" stroke-width="2"/>
<line x1="11.6348" y1="22.1045" x2="11.6348" y2="40.5245" stroke="#313131" stroke-width="2"/>
<line x1="17.5312" y1="26.709" x2="17.5312" y2="40.524" stroke="#313131" stroke-width="2"/>
<line x1="22.2441" y1="30.3926" x2="22.2441" y2="40.5236" stroke="#313131" stroke-width="2"/>
<line x1="52.8848" y1="32.2354" x2="52.8848" y2="40.5244" stroke="#313131" stroke-width="2"/>
<line x1="68.207" y1="6.44727" x2="68.207" y2="35.9193" stroke="#313131" stroke-width="2"/>
<line x1="63.4922" y1="8.28906" x2="63.4922" y2="32.2351" stroke="#313131" stroke-width="2"/>
<line x1="26.959" y1="33.1562" x2="26.959" y2="40.5243" stroke="#313131" stroke-width="2"/>
<line x1="32.8496" y1="34.998" x2="32.8496" y2="40.524" stroke="#313131" stroke-width="2"/>
<line x1="37.5664" y1="23.0254" x2="37.5664" y2="30.3934" stroke="#313131" stroke-width="2"/>
<line x1="32.8496" y1="24.8672" x2="32.8496" y2="29.4722" stroke="#313131" stroke-width="2"/>
<line x1="26.959" y1="23.0254" x2="26.959" y2="26.7094" stroke="#313131" stroke-width="2"/>
<line x1="22.2441" y1="19.3408" x2="22.2441" y2="23.0248" stroke="#313131" stroke-width="2"/>
<line x1="37.5664" y1="36.8398" x2="37.5664" y2="40.5238" stroke="#313131" stroke-width="2"/>
<line x1="57.5977" y1="34.998" x2="57.5977" y2="40.524" stroke="#313131" stroke-width="2"/>
<line x1="57.5977" y1="24.8672" x2="57.5977" y2="28.5512" stroke="#313131" stroke-width="2"/>
<line x1="63.4922" y1="38.6816" x2="63.4922" y2="40.5236" stroke="#313131" stroke-width="2"/>
<line x1="42.2793" y1="34.998" x2="42.2793" y2="40.524" stroke="#313131" stroke-width="2"/>
<line x1="48.1699" y1="33.1562" x2="48.1699" y2="40.5243" stroke="#313131" stroke-width="2"/>
<line x1="52.8848" y1="12.8936" x2="52.8848" y2="22.1036" stroke="#313131" stroke-width="2"/>
<line x1="48.1699" y1="15.6572" x2="48.1699" y2="26.7092" stroke="#313131" stroke-width="2"/>
<line x1="42.2793" y1="18.4199" x2="42.2793" y2="29.4719" stroke="#313131" stroke-width="2"/>
<ellipse cx="2.38638" cy="23.0246" rx="2.35708" ry="1.842" fill="#313131"/>
<ellipse cx="34.2067" cy="21.1828" rx="2.35708" ry="1.842" fill="#313131"/>
<ellipse cx="48.3512" cy="11.9729" rx="2.35708" ry="1.842" fill="#313131"/>
<ellipse cx="67.2067" cy="1.842" rx="2.35708" ry="1.842" fill="#313131"/>
<line y1="-1" x2="18.1626" y2="-1" transform="matrix(0.92067 -0.390341 0.570284 0.821448 1.26758 24.0459)" stroke="#313131" stroke-width="2"/>
<line y1="-1" x2="14.4515" y2="-1" transform="matrix(0.831134 -0.556072 0.73858 0.674165 36.1113 21.0742)" stroke="#313131" stroke-width="2"/>
<line x1="1" y1="-1" x2="14.3207" y2="-1" transform="matrix(0.947537 0.319647 -0.483524 0.875331 19.2578 16.7812)" stroke="#313131" stroke-width="2" stroke-linecap="round"/>
<line y1="-1" x2="20.3531" y2="-1" transform="matrix(0.880686 -0.4737 0.660945 0.750434 49.2812 12.4043)" stroke="#313131" stroke-width="2"/>
</svg>
