<svg width="39" height="39" viewBox="0 0 39 39" fill="none" xmlns="http://www.w3.org/2000/svg">
<path d="M17.5504 3.90039C15.4817 3.90039 13.4977 4.72217 12.035 6.18496C10.5722 7.64774 9.75039 9.6317 9.75039 11.7004C9.75039 13.7691 10.5722 15.753 12.035 17.2158C13.4977 18.6786 15.4817 19.5004 17.5504 19.5004C19.6191 19.5004 21.603 18.6786 23.0658 17.2158C24.5286 15.753 25.3504 13.7691 25.3504 11.7004C25.3504 9.6317 24.5286 7.64774 23.0658 6.18496C21.603 4.72217 19.6191 3.90039 17.5504 3.90039ZM11.7004 11.7004C11.7004 10.1489 12.3167 8.6609 13.4138 7.56382C14.5109 6.46673 15.9989 5.85039 17.5504 5.85039C19.1019 5.85039 20.5899 6.46673 21.687 7.56382C22.7841 8.6609 23.4004 10.1489 23.4004 11.7004C23.4004 13.2519 22.7841 14.7399 21.687 15.837C20.5899 16.9341 19.1019 17.5504 17.5504 17.5504C15.9989 17.5504 14.5109 16.9341 13.4138 15.837C12.3167 14.7399 11.7004 13.2519 11.7004 11.7004ZM7.81794 21.4504C7.30431 21.4481 6.79528 21.5472 6.32009 21.7422C5.84489 21.9372 5.41288 22.2241 5.04887 22.5865C4.68486 22.9488 4.39602 23.3795 4.19893 23.8539C4.00184 24.3282 3.90039 24.8368 3.90039 25.3504C3.90039 28.6478 5.52474 31.1341 8.06364 32.7545C10.5635 34.3477 13.9331 35.1004 17.5504 35.1004H17.6479C17.5827 34.7795 17.5501 34.4528 17.5504 34.1254V33.1504C14.1671 33.1504 11.1992 32.4406 9.11274 31.1087C7.06524 29.8022 5.85039 27.9049 5.85039 25.3504C5.85039 24.272 6.72399 23.4004 7.81794 23.4004H18.5234C19.2567 22.4225 20.3306 21.7558 21.5323 21.5323L21.5479 21.4504H7.81794ZM23.4004 22.4254V23.4004H22.4254C21.6496 23.4004 20.9056 23.7086 20.3571 24.2571C19.8086 24.8056 19.5004 25.5496 19.5004 26.3254V34.1254C19.5004 34.9011 19.8086 35.6451 20.3571 36.1937C20.9056 36.7422 21.6496 37.0504 22.4254 37.0504H34.1254C34.9011 37.0504 35.6451 36.7422 36.1937 36.1937C36.7422 35.6451 37.0504 34.9011 37.0504 34.1254V26.3254C37.0504 25.5496 36.7422 24.8056 36.1937 24.2571C35.6451 23.7086 34.9011 23.4004 34.1254 23.4004H33.1504V22.4254C33.1504 21.6496 32.8422 20.9056 32.2937 20.3571C31.7451 19.8086 31.0012 19.5004 30.2254 19.5004H26.3254C25.5496 19.5004 24.8056 19.8086 24.2571 20.3571C23.7086 20.9056 23.4004 21.6496 23.4004 22.4254ZM26.3254 21.4504H30.2254C30.484 21.4504 30.732 21.5531 30.9148 21.736C31.0977 21.9188 31.2004 22.1668 31.2004 22.4254V23.4004H25.3504V22.4254C25.3504 22.1668 25.4531 21.9188 25.636 21.736C25.8188 21.5531 26.0668 21.4504 26.3254 21.4504Z" fill="#313131"/>
</svg>
