<svg width="73" height="42" viewBox="0 0 73 42" fill="none" xmlns="http://www.w3.org/2000/svg">
<path d="M58.5857 16.578C58.5857 24.9659 49.7793 32.156 38.372 32.156C26.9646 32.156 18.1582 24.9659 18.1582 16.578C18.1582 8.19006 26.9646 1 38.372 1C49.7793 1 58.5857 8.19006 58.5857 16.578Z" stroke="#313131" stroke-width="2"/>
<line y1="-1" x2="21.8704" y2="-1" transform="matrix(0.806793 0.590835 -0.768 0.640451 53.1191 28.998)" stroke="#313131" stroke-width="2"/>
<line x1="2.83594" y1="27.6299" x2="2.83594" y2="40.5239" stroke="#313131" stroke-width="2"/>
<line x1="7.54883" y1="25.7881" x2="7.54883" y2="40.5241" stroke="#313131" stroke-width="2"/>
<line x1="12.2637" y1="22.1045" x2="12.2637" y2="40.5245" stroke="#313131" stroke-width="2"/>
<line x1="18.1582" y1="26.709" x2="18.1582" y2="40.524" stroke="#313131" stroke-width="2"/>
<line x1="22.873" y1="30.3926" x2="22.873" y2="40.5236" stroke="#313131" stroke-width="2"/>
<line x1="53.5137" y1="32.2354" x2="53.5137" y2="40.5244" stroke="#313131" stroke-width="2"/>
<line x1="68.834" y1="6.44727" x2="68.834" y2="35.9193" stroke="#313131" stroke-width="2"/>
<line x1="64.1211" y1="8.28906" x2="64.1211" y2="32.2351" stroke="#313131" stroke-width="2"/>
<line x1="27.5859" y1="33.1562" x2="27.5859" y2="40.5243" stroke="#313131" stroke-width="2"/>
<line x1="33.4785" y1="34.998" x2="33.4785" y2="40.524" stroke="#313131" stroke-width="2"/>
<line x1="38.1953" y1="23.0254" x2="38.1953" y2="30.3934" stroke="#313131" stroke-width="2"/>
<line x1="33.4785" y1="24.8672" x2="33.4785" y2="29.4722" stroke="#313131" stroke-width="2"/>
<line x1="27.5859" y1="23.0254" x2="27.5859" y2="26.7094" stroke="#313131" stroke-width="2"/>
<line x1="22.873" y1="19.3408" x2="22.873" y2="23.0248" stroke="#313131" stroke-width="2"/>
<line x1="38.1953" y1="36.8398" x2="38.1953" y2="40.5238" stroke="#313131" stroke-width="2"/>
<line x1="58.2266" y1="34.998" x2="58.2266" y2="40.524" stroke="#313131" stroke-width="2"/>
<line x1="58.2266" y1="24.8672" x2="58.2266" y2="28.5512" stroke="#313131" stroke-width="2"/>
<line x1="64.1211" y1="38.6816" x2="64.1211" y2="40.5236" stroke="#313131" stroke-width="2"/>
<line x1="42.9082" y1="34.998" x2="42.9082" y2="40.524" stroke="#313131" stroke-width="2"/>
<line x1="48.7988" y1="33.1562" x2="48.7988" y2="40.5243" stroke="#313131" stroke-width="2"/>
<line x1="53.5137" y1="12.8936" x2="53.5137" y2="22.1036" stroke="#313131" stroke-width="2"/>
<line x1="48.7988" y1="15.6572" x2="48.7988" y2="26.7092" stroke="#313131" stroke-width="2"/>
<line x1="42.9082" y1="18.4199" x2="42.9082" y2="29.4719" stroke="#313131" stroke-width="2"/>
<ellipse cx="3.01529" cy="23.0246" rx="2.35708" ry="1.842" fill="#313131"/>
<ellipse cx="34.8356" cy="21.1828" rx="2.35708" ry="1.842" fill="#313131"/>
<ellipse cx="48.9801" cy="11.9729" rx="2.35708" ry="1.842" fill="#313131"/>
<ellipse cx="67.8356" cy="1.842" rx="2.35708" ry="1.842" fill="#313131"/>
<line y1="-1" x2="18.1626" y2="-1" transform="matrix(0.92067 -0.390341 0.570284 0.821448 1.89648 24.0459)" stroke="#313131" stroke-width="2"/>
<line y1="-1" x2="14.4515" y2="-1" transform="matrix(0.831134 -0.556072 0.73858 0.674165 36.7402 21.0742)" stroke="#313131" stroke-width="2"/>
<line x1="1" y1="-1" x2="14.3207" y2="-1" transform="matrix(0.947537 0.319647 -0.483524 0.875331 19.8867 16.7812)" stroke="#313131" stroke-width="2" stroke-linecap="round"/>
<line y1="-1" x2="20.3531" y2="-1" transform="matrix(0.880686 -0.4737 0.660945 0.750434 49.9102 12.4043)" stroke="#313131" stroke-width="2"/>
</svg>
