<svg width="30" height="30" viewBox="0 0 30 30" fill="none" xmlns="http://www.w3.org/2000/svg">
<rect width="30" height="30" rx="2" fill="#D9D9D9"/>
<path d="M7.08861 21.6261H9.86795V14.8763L5.89746 11.8984V20.435C5.89746 21.0941 6.43149 21.6261 7.08861 21.6261Z" fill="#4285F4"/>
<path d="M19.3975 21.6261H22.1768C22.8359 21.6261 23.3679 21.0921 23.3679 20.435V11.8984L19.3975 14.8763" fill="#34A853"/>
<path d="M19.3975 9.71406V14.8757L23.3679 11.8978V10.3096C23.3679 8.83658 21.6864 7.99682 20.5092 8.88025" fill="#FBBC04"/>
<path d="M9.86816 14.8765V9.71484L14.6327 13.2883L19.3973 9.71484V14.8765L14.6327 18.4499" fill="#EA4335"/>
<path d="M5.89746 10.3096V11.8978L9.86795 14.8757V9.71406L8.75621 8.88025C7.57698 7.99682 5.89746 8.83658 5.89746 10.3096Z" fill="#C5221F"/>
</svg>
