<svg width="41" height="40" viewBox="0 0 41 40" fill="none" xmlns="http://www.w3.org/2000/svg">
<mask id="mask0_4093_21394" style="mask-type:alpha" maskUnits="userSpaceOnUse" x="0" y="0" width="41" height="40">
<rect x="0.333984" width="40" height="40" fill="#D9D9D9"/>
</mask>
<g mask="url(#mask0_4093_21394)">
<path d="M20.335 23.583C20.0016 23.583 19.703 23.458 19.439 23.208C19.175 22.958 19.043 22.6527 19.043 22.292C19.043 21.9587 19.175 21.667 19.439 21.417C19.703 21.167 20.0016 21.042 20.335 21.042C20.6683 21.042 20.967 21.167 21.231 21.417C21.495 21.667 21.627 21.9587 21.627 22.292C21.627 22.6527 21.495 22.958 21.231 23.208C20.967 23.458 20.6683 23.583 20.335 23.583ZM13.668 23.583C13.3346 23.583 13.0363 23.458 12.773 23.208C12.509 22.958 12.377 22.6527 12.377 22.292C12.377 21.9587 12.509 21.667 12.773 21.417C13.0363 21.167 13.3346 21.042 13.668 21.042C14.0013 21.042 14.3 21.167 14.564 21.417C14.828 21.667 14.96 21.9587 14.96 22.292C14.96 22.6527 14.828 22.958 14.564 23.208C14.3 23.458 14.0013 23.583 13.668 23.583ZM27.002 23.583C26.6686 23.583 26.37 23.458 26.106 23.208C25.842 22.958 25.71 22.6527 25.71 22.292C25.71 21.9587 25.842 21.667 26.106 21.417C26.37 21.167 26.6686 21.042 27.002 21.042C27.3353 21.042 27.6336 21.167 27.897 21.417C28.161 21.667 28.293 21.9587 28.293 22.292C28.293 22.6527 28.161 22.958 27.897 23.208C27.6336 23.458 27.3353 23.583 27.002 23.583ZM20.335 30C20.0016 30 19.703 29.875 19.439 29.625C19.175 29.375 19.043 29.0693 19.043 28.708C19.043 28.3747 19.175 28.076 19.439 27.812C19.703 27.5487 20.0016 27.417 20.335 27.417C20.6683 27.417 20.967 27.5487 21.231 27.812C21.495 28.076 21.627 28.3747 21.627 28.708C21.627 29.0693 21.495 29.375 21.231 29.625C20.967 29.875 20.6683 30 20.335 30ZM13.668 30C13.3346 30 13.0363 29.875 12.773 29.625C12.509 29.375 12.377 29.0693 12.377 28.708C12.377 28.3747 12.509 28.076 12.773 27.812C13.0363 27.5487 13.3346 27.417 13.668 27.417C14.0013 27.417 14.3 27.5487 14.564 27.812C14.828 28.076 14.96 28.3747 14.96 28.708C14.96 29.0693 14.828 29.375 14.564 29.625C14.3 29.875 14.0013 30 13.668 30ZM27.002 30C26.6686 30 26.37 29.875 26.106 29.625C25.842 29.375 25.71 29.0693 25.71 28.708C25.71 28.3747 25.842 28.076 26.106 27.812C26.37 27.5487 26.6686 27.417 27.002 27.417C27.3353 27.417 27.6336 27.5487 27.897 27.812C28.161 28.076 28.293 28.3747 28.293 28.708C28.293 29.0693 28.161 29.375 27.897 29.625C27.6336 29.875 27.3353 30 27.002 30ZM9.41795 35C8.75129 35 8.18195 34.764 7.70995 34.292C7.23795 33.8193 7.00195 33.2497 7.00195 32.583V10.5C7.00195 9.83333 7.23795 9.264 7.70995 8.792C8.18195 8.31933 8.75129 8.083 9.41795 8.083H12.71V5.417C12.71 5.19433 12.7863 5.00667 12.939 4.854C13.0916 4.70133 13.2793 4.625 13.502 4.625C13.724 4.625 13.9113 4.70133 14.064 4.854C14.2166 5.00667 14.293 5.19433 14.293 5.417V8.083H26.502V5.375C26.502 5.153 26.5713 4.97233 26.71 4.833C26.8486 4.69433 27.0153 4.625 27.21 4.625C27.432 4.625 27.6126 4.69433 27.752 4.833C27.8906 4.97233 27.96 5.153 27.96 5.375V8.083H31.252C31.9186 8.083 32.488 8.31933 32.96 8.792C33.432 9.264 33.668 9.83333 33.668 10.5V32.583C33.668 33.2497 33.432 33.8193 32.96 34.292C32.488 34.764 31.9186 35 31.252 35H9.41795ZM9.41795 33.583H31.252C31.5293 33.583 31.7653 33.486 31.96 33.292C32.1546 33.0973 32.252 32.861 32.252 32.583V17.583H8.41795V32.583C8.41795 32.861 8.51529 33.0973 8.70995 33.292C8.90462 33.486 9.14062 33.583 9.41795 33.583ZM8.41795 16.167H32.252V10.5C32.252 10.222 32.1546 9.986 31.96 9.792C31.7653 9.59733 31.5293 9.5 31.252 9.5H9.41795C9.14062 9.5 8.90462 9.59733 8.70995 9.792C8.51529 9.986 8.41795 10.222 8.41795 10.5V16.167Z" fill="#7DC1FF"/>
</g>
</svg>
