<svg width="36" height="36" viewBox="0 0 36 36" fill="none" xmlns="http://www.w3.org/2000/svg">
<rect width="36" height="36" rx="6" fill="#FF59EE"/>
<path d="M23.0002 18.0002V23.0003M18.9998 23.0003V21.0002M9 21.0002L11.8301 18.1701M14.0002 13C13.2045 13 12.4414 13.3161 11.8788 13.8787C11.3162 14.4413 11.0002 15.2044 11.0002 16C11.0002 16.7956 11.3162 17.5587 11.8788 18.1213C12.4414 18.6839 13.2045 19 14.0002 19C14.7958 19 15.5589 18.6839 16.1215 18.1213C16.6841 17.5587 17.0002 16.7956 17.0002 16C17.0002 15.2044 16.6841 14.4413 16.1215 13.8787C15.5589 13.3161 14.7958 13 14.0002 13Z" stroke="white" stroke-width="1.5" stroke-linecap="round" stroke-linejoin="round"/>
<path d="M14.0003 9H26.0003C26.2655 9 26.5198 9.10534 26.7073 9.29285C26.8948 9.48035 27.0002 9.73467 27.0002 9.99984V26.0002C27.0002 26.2653 26.8948 26.5196 26.7073 26.7072C26.5198 26.8947 26.2655 27 26.0003 27H14.0003C13.869 27.0001 13.7389 26.9742 13.6176 26.924C13.4962 26.8738 13.3859 26.8002 13.293 26.7073C13.2001 26.6145 13.1264 26.5042 13.0762 26.3829C13.0259 26.2616 13 26.1315 13 26.0002V23.0002" stroke="white" stroke-width="1.5" stroke-linecap="round" stroke-linejoin="round"/>
</svg>
