<svg width="40" height="40" viewBox="0 0 40 40" fill="none" xmlns="http://www.w3.org/2000/svg">
<mask id="mask0_4093_21416" style="mask-type:alpha" maskUnits="userSpaceOnUse" x="0" y="0" width="40" height="40">
<rect width="40" height="40" fill="#D9D9D9"/>
</mask>
<g mask="url(#mask0_4093_21416)">
<path d="M10.001 14.042H15.001C15.1956 14.042 15.3623 13.9723 15.501 13.833C15.6396 13.6943 15.709 13.5277 15.709 13.333C15.709 13.139 15.6396 12.9723 15.501 12.833C15.3623 12.6943 15.1956 12.625 15.001 12.625H10.001C9.8063 12.625 9.63964 12.6943 9.50097 12.833C9.3623 12.9723 9.29297 13.139 9.29297 13.333C9.29297 13.5277 9.3623 13.6943 9.50097 13.833C9.63964 13.9723 9.8063 14.042 10.001 14.042ZM10.001 20.708H15.001C15.1956 20.708 15.3623 20.6387 15.501 20.5C15.6396 20.3613 15.709 20.1947 15.709 20C15.709 19.8053 15.6396 19.6387 15.501 19.5C15.3623 19.3613 15.1956 19.292 15.001 19.292H10.001C9.8063 19.292 9.63964 19.3613 9.50097 19.5C9.3623 19.6387 9.29297 19.8053 9.29297 20C9.29297 20.1947 9.3623 20.3613 9.50097 20.5C9.63964 20.6387 9.8063 20.708 10.001 20.708ZM10.001 27.375H15.001C15.1956 27.375 15.3623 27.3057 15.501 27.167C15.6396 27.0277 15.709 26.861 15.709 26.667C15.709 26.4723 15.6396 26.3057 15.501 26.167C15.3623 26.0277 15.1956 25.958 15.001 25.958H10.001C9.8063 25.958 9.63964 26.0277 9.50097 26.167C9.3623 26.3057 9.29297 26.4723 9.29297 26.667C9.29297 26.861 9.3623 27.0277 9.50097 27.167C9.63964 27.3057 9.8063 27.375 10.001 27.375ZM24.251 23.208C24.3896 23.208 24.5216 23.1803 24.647 23.125C24.7716 23.0697 24.8896 22.9863 25.001 22.875L30.626 17.25C30.7646 17.0833 30.841 16.9167 30.855 16.75C30.869 16.5833 30.7926 16.4167 30.626 16.25C30.4873 16.0833 30.3276 16 30.147 16C29.9663 16 29.7926 16.0833 29.626 16.25L24.251 21.667L22.376 19.792C22.2373 19.6807 22.0706 19.611 21.876 19.583C21.6813 19.5557 21.5146 19.6253 21.376 19.792C21.2373 19.9307 21.168 20.0973 21.168 20.292C21.168 20.486 21.2373 20.6527 21.376 20.792L23.501 22.875C23.6123 22.9863 23.7303 23.0697 23.855 23.125C23.9803 23.1803 24.1123 23.208 24.251 23.208ZM7.33397 33.333C6.6673 33.333 6.09797 33.097 5.62597 32.625C5.15397 32.153 4.91797 31.5837 4.91797 30.917V9.08299C4.91797 8.41633 5.15397 7.84699 5.62597 7.37499C6.09797 6.90299 6.6673 6.66699 7.33397 6.66699H32.668C33.3346 6.66699 33.904 6.90299 34.376 7.37499C34.848 7.84699 35.084 8.41633 35.084 9.08299V30.917C35.084 31.5837 34.848 32.153 34.376 32.625C33.904 33.097 33.3346 33.333 32.668 33.333H7.33397ZM7.33397 31.917H32.668C32.918 31.917 33.147 31.8127 33.355 31.604C33.5636 31.396 33.668 31.167 33.668 30.917V9.08299C33.668 8.83299 33.5636 8.60399 33.355 8.39599C33.147 8.18733 32.918 8.08299 32.668 8.08299H7.33397C7.08397 8.08299 6.85497 8.18733 6.64697 8.39599C6.4383 8.60399 6.33397 8.83299 6.33397 9.08299V30.917C6.33397 31.167 6.4383 31.396 6.64697 31.604C6.85497 31.8127 7.08397 31.917 7.33397 31.917Z" fill="#7DC1FF"/>
</g>
</svg>
