<svg width="100" height="100" viewBox="0 0 100 100" fill="none" xmlns="http://www.w3.org/2000/svg">
<rect width="100" height="100" rx="6" fill="#D9D9D9"/>
<path d="M68.4218 40.0726L62.3863 59.0948C62.3863 57.638 58.2239 26.0869 58.2239 26.0869C48.6503 26.0869 43.5722 32.8716 40.9082 40.0726L33.5408 59.1364C33.5408 57.7628 32.5002 40.2391 32.5002 40.2391C32.1448 36.4456 30.4106 32.9141 27.6259 30.3136C24.8412 27.713 21.1996 26.224 17.3906 26.1285L25.216 73.913C35.2057 73.913 40.6169 67.1283 43.4057 59.9273L49.6493 43.6939C49.6493 44.3599 53.8117 73.913 53.8117 73.913C57.8967 73.9077 61.8738 72.6018 65.1667 70.1845C68.4597 67.7672 70.8973 64.3641 72.1263 60.4684L86.2785 26.0869C76.2887 26.0869 71.0441 32.8716 68.3802 40.0726H68.4218Z" fill="#4353FF"/>
</svg>
