<svg width="41" height="40" viewBox="0 0 41 40" fill="none" xmlns="http://www.w3.org/2000/svg">
<mask id="mask0_4093_21405" style="mask-type:alpha" maskUnits="userSpaceOnUse" x="0" y="0" width="41" height="40">
<rect x="0.667969" width="40" height="40" fill="#D9D9D9"/>
</mask>
<g mask="url(#mask0_4093_21405)">
<path d="M17.293 25.833H20.001V26.875C20.001 27.0697 20.0706 27.2363 20.21 27.375C20.3486 27.5137 20.5153 27.583 20.71 27.583C20.904 27.583 21.0706 27.5137 21.21 27.375C21.3486 27.2363 21.418 27.0697 21.418 26.875V25.833H23.543C23.9043 25.833 24.203 25.708 24.439 25.458C24.675 25.208 24.793 24.9163 24.793 24.583V20.542C24.793 20.1807 24.675 19.875 24.439 19.625C24.203 19.375 23.9043 19.25 23.543 19.25H18.001V15.583H24.085C24.279 15.583 24.4456 15.5137 24.585 15.375C24.7236 15.2363 24.793 15.0697 24.793 14.875C24.793 14.653 24.7236 14.4793 24.585 14.354C24.4456 14.2293 24.279 14.167 24.085 14.167H21.418V13.125C21.418 12.9303 21.3486 12.7637 21.21 12.625C21.0706 12.4863 20.904 12.417 20.71 12.417C20.5153 12.417 20.3486 12.4863 20.21 12.625C20.0706 12.7637 20.001 12.9303 20.001 13.125V14.167H17.835C17.5016 14.167 17.21 14.292 16.96 14.542C16.71 14.792 16.585 15.0973 16.585 15.458V19.458C16.585 19.8193 16.71 20.111 16.96 20.333C17.21 20.5557 17.5016 20.667 17.835 20.667H23.376V24.417H17.293C17.071 24.417 16.8973 24.4863 16.772 24.625C16.6473 24.7637 16.585 24.9303 16.585 25.125C16.585 25.347 16.6473 25.5207 16.772 25.646C16.8973 25.7707 17.071 25.833 17.293 25.833ZM8.08497 31.667C7.4183 31.667 6.84864 31.4307 6.37597 30.958C5.90397 30.486 5.66797 29.9167 5.66797 29.25V10.75C5.66797 10.0833 5.90397 9.51401 6.37597 9.04201C6.84864 8.56934 7.4183 8.33301 8.08497 8.33301H33.251C33.9176 8.33301 34.4873 8.56934 34.96 9.04201C35.432 9.51401 35.668 10.0833 35.668 10.75V29.25C35.668 29.9167 35.432 30.486 34.96 30.958C34.4873 31.4307 33.9176 31.667 33.251 31.667H8.08497ZM8.08497 30.25H33.251C33.529 30.25 33.7653 30.1527 33.96 29.958C34.154 29.764 34.251 29.528 34.251 29.25V10.75C34.251 10.472 34.154 10.236 33.96 10.042C33.7653 9.84734 33.529 9.75001 33.251 9.75001H8.08497C7.80697 9.75001 7.57064 9.84734 7.37597 10.042C7.18197 10.236 7.08497 10.472 7.08497 10.75V29.25C7.08497 29.528 7.18197 29.764 7.37597 29.958C7.57064 30.1527 7.80697 30.25 8.08497 30.25Z" fill="#7DC1FF"/>
</g>
</svg>
