<svg width="30" height="30" viewBox="0 0 30 30" fill="none" xmlns="http://www.w3.org/2000/svg">
<rect width="30" height="30" rx="2" fill="#D9D9D9"/>
<path d="M22.1196 8.42863C22.1048 8.3204 22.01 8.26058 21.9317 8.25401C21.8536 8.24744 20.1993 8.12486 20.1993 8.12486C20.1993 8.12486 19.0505 6.9843 18.9244 6.85809C18.7982 6.73188 18.5519 6.77026 18.4563 6.79844C18.4421 6.80259 18.2052 6.87572 17.8133 6.99692C17.4295 5.89267 16.7523 4.8778 15.5607 4.8778C15.5278 4.8778 15.494 4.87919 15.4601 4.88109C15.1212 4.43296 14.7014 4.23828 14.3389 4.23828C11.5633 4.23828 10.2372 7.70802 9.82143 9.47133C8.74294 9.80552 7.97669 10.0431 7.87883 10.0738C7.27683 10.2626 7.25781 10.2817 7.1788 10.8489C7.11915 11.2784 5.54395 23.4602 5.54395 23.4602L17.8183 25.76L24.469 24.3212C24.469 24.3212 22.1343 8.53685 22.1196 8.42863ZM17.1349 7.20681C16.8266 7.30224 16.4761 7.41065 16.0963 7.52821C16.0967 7.45508 16.097 7.38298 16.097 7.30432C16.097 6.61794 16.0017 6.06539 15.8489 5.62728C16.4628 5.70439 16.8717 6.40287 17.1349 7.20681ZM15.0873 5.76335C15.258 6.19108 15.369 6.80484 15.369 7.63316C15.369 7.67551 15.3686 7.71424 15.3683 7.75349C14.6928 7.96269 13.9589 8.18986 13.2232 8.41773C13.6363 6.82368 14.4105 6.0538 15.0873 5.76335ZM14.2626 4.98275C14.3824 4.98275 14.5031 5.02338 14.6186 5.10291C13.7291 5.52147 12.7756 6.57576 12.3729 8.68105C11.7844 8.86327 11.2092 9.04135 10.6774 9.20611C11.1491 7.60031 12.269 4.98275 14.2626 4.98275Z" fill="#95BF46"/>
<path d="M21.9321 8.25469C21.8539 8.24812 20.1997 8.12554 20.1997 8.12554C20.1997 8.12554 19.0508 6.98499 18.9248 6.85878C18.8776 6.81175 18.814 6.78772 18.7474 6.77734L17.8193 25.7605L24.4694 24.3219C24.4694 24.3219 22.1347 8.53754 22.12 8.42931C22.1051 8.32108 22.0104 8.26126 21.9321 8.25469Z" fill="#5E8E3E"/>
<path d="M15.561 11.9288L14.741 14.3681C14.741 14.3681 14.0225 13.9847 13.1418 13.9847C11.8506 13.9847 11.7856 14.795 11.7856 14.9992C11.7856 16.1133 14.6898 16.5402 14.6898 19.1498C14.6898 21.2028 13.3876 22.5249 11.6317 22.5249C9.52472 22.5249 8.44727 21.2136 8.44727 21.2136L9.01141 19.3496C9.01141 19.3496 10.1189 20.3005 11.0536 20.3005C11.6642 20.3005 11.9127 19.8197 11.9127 19.4684C11.9127 18.0151 9.53008 17.9503 9.53008 15.5623C9.53008 13.5524 10.9727 11.6074 13.8847 11.6074C15.0067 11.6074 15.561 11.9288 15.561 11.9288Z" fill="white"/>
</svg>
