<svg width="30" height="30" viewBox="0 0 30 30" fill="none" xmlns="http://www.w3.org/2000/svg">
<rect width="30" height="30" rx="2" fill="#D9D9D9"/>
<path d="M20.5271 12.0219L18.7165 17.7285C18.7165 17.2915 17.4677 7.82617 17.4677 7.82617C14.5957 7.82617 13.0722 9.86159 12.2731 12.0219L10.0628 17.741C10.0628 17.329 9.75064 12.0718 9.75064 12.0718C9.64403 10.9338 9.12375 9.87433 8.28836 9.09416C7.45296 8.314 6.36046 7.86729 5.21777 7.83866L7.56537 22.174C10.5623 22.174 12.1856 20.1386 13.0223 17.9783L14.8954 13.1083C14.8954 13.3081 16.1441 22.174 16.1441 22.174C17.3696 22.1724 18.5627 21.7806 19.5506 21.0555C20.5385 20.3303 21.2698 19.3093 21.6385 18.1406L25.8841 7.82617C22.8872 7.82617 21.3138 9.86159 20.5146 12.0219H20.5271Z" fill="#4353FF"/>
</svg>
